<svg width="1200" height="800" viewBox="0 0 1200 800" fill="none" xmlns="http://www.w3.org/2000/svg">
  <rect width="1200" height="800" fill="#0B1020"/>
  <g opacity="0.22" stroke="#8DA2FB" stroke-width="1">
    <path d="M0 80H1200"/>
    <path d="M0 160H1200"/>
    <path d="M0 240H1200"/>
    <path d="M0 320H1200"/>
    <path d="M0 400H1200"/>
    <path d="M0 480H1200"/>
    <path d="M0 560H1200"/>
    <path d="M0 640H1200"/>
    <path d="M0 720H1200"/>
    <path d="M120 0V800"/>
    <path d="M240 0V800"/>
    <path d="M360 0V800"/>
    <path d="M480 0V800"/>
    <path d="M600 0V800"/>
    <path d="M720 0V800"/>
    <path d="M840 0V800"/>
    <path d="M960 0V800"/>
    <path d="M1080 0V800"/>
  </g>
  <g opacity="0.25" filter="url(#blurGlow)">
    <circle cx="180" cy="110" r="180" fill="#1D4ED8"/>
    <circle cx="1020" cy="670" r="220" fill="#7C3AED"/>
  </g>
  <defs>
    <filter id="blurGlow" x="-120" y="-190" width="1460" height="1180" filterUnits="userSpaceOnUse" color-interpolation-filters="sRGB">
      <feGaussianBlur stdDeviation="90"/>
    </filter>
  </defs>
</svg>
